<?xml version="1.0" encoding="UTF-8" standalone="no"?>
<svg
   xmlns:dc="http://purl.org/dc/elements/1.1/"
   xmlns:cc="http://creativecommons.org/ns#"
   xmlns:rdf="http://www.w3.org/1999/02/22-rdf-syntax-ns#"
   xmlns:svg="http://www.w3.org/2000/svg"
   xmlns="http://www.w3.org/2000/svg"
   xmlns:sodipodi="http://sodipodi.sourceforge.net/DTD/sodipodi-0.dtd"
   xmlns:inkscape="http://www.inkscape.org/namespaces/inkscape"
   version="1.0"
   width="540.000000pt"
   height="352.000000pt"
   viewBox="0 0 540.000000 352.000000"
   preserveAspectRatio="xMidYMid meet"
   id="svg2"
   inkscape:version="0.91 r13725"
   sodipodi:docname="42418658_10214944273453111_4004580309394784256_o.svg">
  <defs
     id="defs30" />
  <sodipodi:namedview
     pagecolor="#ffffff"
     bordercolor="#666666"
     borderopacity="1"
     objecttolerance="10"
     gridtolerance="10"
     guidetolerance="10"
     inkscape:pageopacity="0"
     inkscape:pageshadow="2"
     inkscape:window-width="1360"
     inkscape:window-height="704"
     id="namedview28"
     showgrid="false"
     inkscape:zoom="0.45037037"
     inkscape:cx="-11.101974"
     inkscape:cy="220"
     inkscape:window-x="0"
     inkscape:window-y="27"
     inkscape:window-maximized="1"
     inkscape:current-layer="g6" />
  <metadata
     id="metadata4">
Created by potrace 1.15, written by Peter Selinger 2001-2017
<rdf:RDF>
  <cc:Work
     rdf:about="">
    <dc:format>image/svg+xml</dc:format>
    <dc:type
       rdf:resource="http://purl.org/dc/dcmitype/StillImage" />
  </cc:Work>
</rdf:RDF>
</metadata>
  <g
     transform="translate(0.000000,352.000000) scale(0.100000,-0.100000)"
     fill="#000000"
     stroke="none"
     id="g6">
    <path
       d="m 1102.8947,2186.1842 0,-765 768,2 767,3 3,763 3,762 -771,0 -770,0 0,-765 z m 1150,0 0,-385 -385,0 -385,0 0,385 0,385 385,0 385,0 0,-385 z"
       id="path8"
       style="fill:#c30600;fill-opacity:1"
       inkscape:connector-curvature="0" />
    <path
       d="m 2822.8947,2186.1842 0,-765 770,0 770,0 0,765 0,765 -190,0 -190,0 0,-575 0,-575 -387,2 -388,3 -3,573 -2,572 -190,0 -190,0 0,-765 z"
       id="path10"
       style="fill:#c30600;fill-opacity:1"
       inkscape:connector-curvature="0" />
    <path
       d="m 2668.8947,1193.1842 c -3,-3 -6,-117 -6,-253.99999 l 0,-248 56,0 55,0 -2,113 -2,112 32,3 c 29,3 31,1 31,-27 0,-28 3,-31 30,-31 27,0 30,-3 30,-30 0,-27 3,-30 30,-30 27,0 30,-3 30,-31 0,-28 3,-31 25,-27 22,5 25,2 25,-23 0,-23 5,-28 28,-31 21,-2 28,-9 30,-30 3,-22 9,-28 28,-28 l 24,0 0,256 0,254.99999 -52,-3 -53,-3 -3,-112 -3,-112.99999 -29,0 c -25,0 -30,4 -30,24 0,19 -6,25 -27,28 -22,2 -29,9 -31,30 -3,20.99999 -9,26.99999 -30,29.99999 -21,2 -28,9 -30,31 -3,21 -9,27 -28,27 -20,0 -24,5 -24,30 0,27 -3,30 -30,30 -25,0 -30,4 -30,24 0,22 -31,42 -44,28 z"
       id="path12"
       style="fill:#6a6a6a;fill-opacity:1"
       inkscape:connector-curvature="0" />
    <path
       d="m 1129.8947,1134.1842 c -4,-3 -7,-105 -7,-224.99999 l 0,-218 225,0 225,0 0,225 0,224.99999 -218,0 c -120,0 -222,-3 -225,-7 z m 338,-222.99999 0,-115 -117,-3 -118,-3 0,121 0,120.99999 118,-3 117,-3 0,-114.99999 z"
       id="path14"
       style="fill:#6a6a6a;fill-opacity:1"
       inkscape:connector-curvature="0" />
    <path
       d="m 1639.8947,1135.1842 c -4,-4 -7,-29 -7,-56 l 0,-48 176,0 175,0 -3,-31.99999 -3,-33 -170,-2 -170,-2 0,-193 0,-193 25,0 c 20,0 25,5 25,25 0,20 6,26 28,28 l 27,3 0,115 0,114 173,0 172,0 -2,137 -2,137.99999 -219,3 c -120,1 -221,-1 -225,-4 z"
       id="path16"
       style="fill:#6a6a6a;fill-opacity:1"
       inkscape:connector-curvature="0" />
    <path
       d="m 2152.8947,1086.1842 0,-55 226,0 225,0 -3,53 -3,52 -222,3 -223,2 0,-55 z"
       id="path18"
       style="fill:#6a6a6a;fill-opacity:1"
       inkscape:connector-curvature="0" />
    <path
       d="m 3412.8947,1134.1842 c -1,-5 -1,-105 -1,-222.99999 l 0,-215 223,0 223,0 -2,220 -1,219.99999 -51,3 -51,3 -2,-172.99999 -3,-173 -115,0 -115,0 -3,173 -2,171.99999 -50,0 c -28,0 -50,-3 -50,-7 z"
       id="path20"
       style="fill:#6a6a6a;fill-opacity:1"
       inkscape:connector-curvature="0" />
    <path
       d="m 3922.8947,1086.1842 0,-55 171,0 170,0 -3,-31.99999 -3,-33 -167,-3 -168,-2 0,-196 0,-195 23,3 c 16,2 23,11 25,31 3,21 9,27 27,27 24,0 24,1 27,113 l 3,112 173,3 172,2 0,139.99999 0,140 -225,0 -225,0 0,-55 z"
       id="path22"
       style="fill:#6a6a6a;fill-opacity:1"
       inkscape:connector-curvature="0" />
    <path
       d="m 2152.8947,911.18421 0,-50 225,0 225,0 0,50 0,50 -225,0 -225,0 0,-50 z"
       id="path24"
       style="fill:#6a6a6a;fill-opacity:1"
       inkscape:connector-curvature="0" />
    <path
       d="m 2152.8947,741.18421 0,-50 225,0 225,0 0,50 0,50 -225,0 -225,0 0,-50 z"
       id="path26"
       style="fill:#6a6a6a;fill-opacity:1"
       inkscape:connector-curvature="0" />
  </g>
</svg>
